<svg width="17" height="22" viewBox="0 0 17 22" fill="none" xmlns="http://www.w3.org/2000/svg">
<path d="M8.27325 0.716578C8.30564 0.716398 8.33803 0.716217 8.3714 0.716031C8.43966 0.715791 8.50793 0.715768 8.57619 0.715951C8.67959 0.716084 8.78295 0.715096 8.88635 0.714029C9.22179 0.712645 9.5139 0.717048 9.82511 0.855564C9.87902 0.874105 9.93308 0.892204 9.98729 0.909842C10.6575 1.14293 11.1813 1.48728 11.6778 1.99245C11.7259 2.04057 11.7259 2.04057 11.7749 2.08965C12.601 2.96566 12.8083 4.04038 12.7753 5.19604C12.7739 5.23601 12.7739 5.23601 12.7726 5.27678C12.8235 5.2759 12.8744 5.27501 12.9269 5.27411C13.1181 5.27103 13.3092 5.26911 13.5004 5.26753C13.5827 5.26669 13.6651 5.26554 13.7474 5.26407C14.4789 5.25136 15.0901 5.3332 15.6464 5.85575C16.0635 6.2981 16.2159 6.80597 16.244 7.40174C16.2454 7.43255 16.2469 7.46337 16.2485 7.49511C16.2534 7.59801 16.2582 7.70092 16.2629 7.80382C16.2664 7.87789 16.27 7.95196 16.2735 8.02603C16.2831 8.22776 16.2926 8.4295 16.302 8.63123C16.312 8.84515 16.3222 9.05907 16.3323 9.27298C16.3517 9.68119 16.3709 10.0894 16.39 10.4976C16.4113 10.9513 16.4328 11.4049 16.4542 11.8586C16.473 12.2559 16.4918 12.6531 16.5106 13.0504C16.5126 13.0937 16.5146 13.1369 16.5167 13.1815C16.5579 14.0538 16.5991 14.9261 16.6386 15.7985C16.6473 15.9907 16.6561 16.1828 16.6649 16.3749C16.6716 16.5208 16.6782 16.6668 16.6846 16.8127C16.6915 16.9684 16.6986 17.124 16.7057 17.2797C16.7086 17.3471 16.7086 17.3471 16.7116 17.4159C16.7135 17.4567 16.7154 17.4975 16.7173 17.5395C16.7189 17.5745 16.7205 17.6095 16.7221 17.6456C16.7304 17.7376 16.7499 17.8196 16.7727 17.9088C16.7841 18.1196 16.7859 18.3303 16.7875 18.5414C16.7882 18.6103 16.7893 18.6793 16.7909 18.7482C16.8067 19.4244 16.6531 19.9349 16.1821 20.4431C15.9446 20.6699 15.6802 20.8056 15.3832 20.9405C15.3449 20.9626 15.3449 20.9626 15.3058 20.9851C15.1952 21.0332 15.1126 21.0356 14.9921 21.036C14.9467 21.0364 14.9013 21.0368 14.8545 21.0372C14.7798 21.0371 14.7798 21.0371 14.7035 21.0371C14.6505 21.0374 14.5976 21.0377 14.543 21.0381C14.3959 21.0389 14.2487 21.0392 14.1016 21.0394C13.9429 21.0398 13.7842 21.0406 13.6255 21.0413C13.2421 21.043 12.8588 21.0438 12.4754 21.0446C12.2947 21.0449 12.114 21.0454 11.9333 21.0458C11.3322 21.0473 10.7312 21.0485 10.1301 21.0491C9.97414 21.0493 9.81817 21.0494 9.6622 21.0496C9.60405 21.0496 9.60405 21.0496 9.54473 21.0497C8.91757 21.0504 8.29043 21.0525 7.66328 21.0553C7.01883 21.0581 6.37439 21.0596 5.72993 21.0598C5.36833 21.06 5.00674 21.0608 4.64514 21.0629C4.33699 21.0647 4.02886 21.0654 3.72069 21.0646C3.56368 21.0642 3.40672 21.0644 3.24971 21.066C2.41205 21.0743 1.77988 21.0209 1.15588 20.4106C1.00317 20.2361 0.877792 20.052 0.772151 19.8457C0.757255 19.8189 0.742359 19.7921 0.727012 19.7645C0.553753 19.4081 0.583624 19.0373 0.590566 18.651C0.59105 18.5813 0.591462 18.5116 0.591799 18.4419C0.592364 18.3753 0.592992 18.3087 0.593691 18.2421C0.594002 18.2111 0.594313 18.1801 0.594633 18.1482C0.598726 17.9288 0.598726 17.9288 0.624475 17.826C0.646484 17.7378 0.653933 17.6579 0.658128 17.5673C0.659799 17.5329 0.66147 17.4986 0.663192 17.4632C0.664843 17.4257 0.666494 17.3882 0.668195 17.3496C0.670093 17.3096 0.67199 17.2696 0.673945 17.2283C0.680279 17.0939 0.686369 16.9594 0.692461 16.825C0.696947 16.7287 0.701449 16.6324 0.705964 16.5361C0.718208 16.2741 0.730243 16.0122 0.742242 15.7502C0.754853 15.4757 0.767662 15.2012 0.780452 14.9267C0.801942 14.465 0.823307 14.0033 0.844584 13.5417C0.866412 13.0681 0.888291 12.5945 0.910252 12.1209C0.911601 12.0918 0.91295 12.0627 0.914339 12.0327C0.929103 11.7144 0.94388 11.396 0.958663 11.0776C0.962601 10.9928 0.966539 10.908 0.970477 10.8232C0.974367 10.7394 0.978257 10.6556 0.982147 10.5719C0.997293 10.2456 1.01239 9.91929 1.02743 9.593C1.03685 9.38893 1.04629 9.18486 1.05573 8.98079C1.06007 8.88687 1.0644 8.79294 1.06871 8.69901C1.08007 8.45177 1.09162 8.20454 1.10359 7.95732C1.10719 7.88282 1.11074 7.80831 1.11425 7.7338C1.11919 7.62968 1.12439 7.52557 1.12968 7.42146C1.13107 7.3914 1.13246 7.36134 1.13389 7.33037C1.16778 6.68922 1.40113 6.1806 1.86693 5.73995C2.18456 5.48073 2.5996 5.27074 3.01685 5.272C3.06994 5.272 3.06994 5.272 3.1241 5.27201C3.18082 5.27233 3.18082 5.27233 3.23869 5.27267C3.2777 5.27273 3.31672 5.27279 3.35692 5.27285C3.48133 5.27308 3.60574 5.27361 3.73015 5.27415C3.81459 5.27436 3.89902 5.27455 3.98345 5.27472C4.19026 5.27519 4.39706 5.27591 4.60387 5.27678C4.60255 5.23681 4.60255 5.23681 4.6012 5.19604C4.56691 3.99627 4.8014 2.94779 5.64601 2.0491C5.70517 1.98763 5.76506 1.92687 5.82497 1.86613C5.87504 1.81524 5.87504 1.81524 5.92612 1.76333C6.42983 1.28141 7.02496 1.03035 7.67767 0.813457C7.71594 0.798598 7.75421 0.783739 7.79365 0.76843C7.95524 0.722093 8.10663 0.71637 8.27325 0.716578ZM6.75132 2.9609C6.72521 2.98571 6.6991 3.01051 6.6722 3.03607C6.34622 3.36789 6.08737 3.8871 6.0355 4.35043C6.031 4.38294 6.02649 4.41545 6.02185 4.44895C5.98788 4.72825 5.9934 4.99203 5.9934 5.27678C7.77199 5.27678 9.55058 5.27678 11.3831 5.27678C11.3831 4.34783 11.2383 3.56794 10.5699 2.88459C10.3656 2.68896 10.1628 2.53833 9.90933 2.41352C9.86992 2.39408 9.83052 2.37465 9.78992 2.35463C8.74115 1.87842 7.53846 2.13858 6.75132 2.9609ZM2.7117 6.91894C2.57343 7.12006 2.57073 7.30177 2.55868 7.53828C2.55653 7.57779 2.55439 7.61731 2.55218 7.65801C2.54479 7.79582 2.53769 7.93363 2.5306 8.07145C2.528 8.12102 2.5254 8.17059 2.52272 8.22166C2.42765 10.0335 2.34481 11.8459 2.25979 13.6582C2.24028 14.0737 2.22061 14.4892 2.2009 14.9047C2.18166 15.3104 2.16254 15.7162 2.1435 16.1219C2.13223 16.3621 2.12091 16.6024 2.10947 16.8426C2.0988 17.067 2.08827 17.2914 2.07785 17.5157C2.07403 17.5974 2.07016 17.6791 2.06624 17.7608C2.05445 18.0066 2.04393 18.2524 2.03536 18.4983C2.0336 18.5447 2.0336 18.5447 2.03181 18.5921C2.02882 18.6787 2.02681 18.7653 2.02517 18.8519C2.02404 18.8999 2.0229 18.9478 2.02173 18.9972C2.04019 19.177 2.10293 19.3166 2.22336 19.4518C2.419 19.607 2.54846 19.6404 2.79335 19.6407C2.85738 19.641 2.85738 19.641 2.92271 19.6412C2.96953 19.6412 3.01635 19.6412 3.06459 19.6411C3.11439 19.6412 3.16419 19.6414 3.2155 19.6415C3.35378 19.6418 3.49205 19.6419 3.63032 19.6419C3.77944 19.642 3.92855 19.6423 4.07767 19.6426C4.40373 19.6432 4.7298 19.6434 5.05587 19.6436C5.25946 19.6437 5.46305 19.6439 5.66663 19.6441C6.2303 19.6446 6.79397 19.6451 7.35765 19.6452C7.39372 19.6452 7.42979 19.6452 7.46696 19.6452C7.50312 19.6452 7.53928 19.6452 7.57653 19.6453C7.6498 19.6453 7.72308 19.6453 7.79635 19.6453C7.8327 19.6453 7.86904 19.6453 7.90649 19.6453C8.4955 19.6455 9.08452 19.6462 9.67353 19.6472C10.2782 19.6482 10.883 19.6487 11.4877 19.6488C11.8272 19.6488 12.1667 19.6491 12.5063 19.6498C12.7954 19.6505 13.0845 19.6507 13.3736 19.6504C13.5211 19.6502 13.6685 19.6502 13.816 19.6508C13.976 19.6514 14.1359 19.6511 14.2958 19.6507C14.3656 19.6512 14.3656 19.6512 14.4369 19.6517C14.714 19.6499 14.9432 19.634 15.1618 19.4457C15.5316 18.9561 15.3232 18.0293 15.2954 17.4465C15.2905 17.3411 15.2856 17.2358 15.2807 17.1305C15.2688 16.8754 15.2567 16.6204 15.2446 16.3654C15.2305 16.0677 15.2166 15.77 15.2026 15.4723C15.1777 14.9407 15.1527 14.4092 15.1275 13.8776C15.1032 13.3631 15.079 12.8487 15.0549 12.3342C15.0534 12.3025 15.0519 12.2708 15.0504 12.2381C15.0489 12.2065 15.0474 12.1748 15.0459 12.1422C15.0183 11.5545 14.9907 10.9669 14.963 10.3792C14.9533 10.1722 14.9436 9.96526 14.9339 9.75829C14.9208 9.4792 14.9076 9.20011 14.8944 8.92103C14.8895 8.81896 14.8847 8.71688 14.8799 8.6148C14.8676 8.35218 14.855 8.08958 14.8414 7.82702C14.8379 7.75824 14.8344 7.68945 14.831 7.62066C14.8269 7.53747 14.8221 7.45431 14.8173 7.37116C14.8138 7.30669 14.8138 7.30669 14.8101 7.24092C14.784 7.0632 14.7141 6.91611 14.5832 6.79262C14.3515 6.64276 14.1454 6.64849 13.8788 6.65026C13.8105 6.64997 13.8105 6.64997 13.7408 6.64967C13.5882 6.64916 13.4355 6.64956 13.2829 6.64996C13.1735 6.64979 13.0641 6.64956 12.9546 6.64929C12.6882 6.64873 12.4219 6.64885 12.1555 6.64921C11.9389 6.6495 11.7223 6.64954 11.5058 6.6494C11.4749 6.64938 11.4441 6.64936 11.4123 6.64934C11.3497 6.6493 11.287 6.64926 11.2244 6.64922C10.637 6.64886 10.0496 6.64927 9.46223 6.64995C8.95852 6.65052 8.45482 6.65042 7.95112 6.64983C7.36595 6.64916 6.78078 6.64889 6.19561 6.64928C6.13317 6.64932 6.07073 6.64936 6.00829 6.6494C5.97756 6.64942 5.94684 6.64944 5.91519 6.64946C5.699 6.64957 5.4828 6.64938 5.26661 6.64909C4.97539 6.64869 4.68419 6.64897 4.39298 6.6497C4.28611 6.64987 4.17924 6.64982 4.07237 6.64954C3.92646 6.6492 3.78057 6.64963 3.63466 6.65026C3.5924 6.64998 3.55013 6.6497 3.50659 6.64941C3.2057 6.65193 2.92102 6.67859 2.7117 6.91894Z" fill="#676767"/>
<path d="M5.81966 8.15049C6.03841 8.31323 6.10398 8.54538 6.17493 8.79788C6.38593 9.4978 6.77959 10.0271 7.41791 10.3877C8.13458 10.7536 8.89577 10.7799 9.65927 10.5374C10.329 10.2811 10.8261 9.79853 11.1304 9.15052C11.1897 8.98853 11.2423 8.82452 11.2897 8.65866C11.3623 8.41526 11.4557 8.22996 11.676 8.08618C11.9162 8.00071 12.1089 7.99318 12.348 8.08766C12.5368 8.18345 12.6459 8.28412 12.7304 8.47681C12.8328 9.15652 12.4828 9.86089 12.0998 10.4058C12.0183 10.5098 11.9335 10.6094 11.8462 10.7085C11.8173 10.7434 11.7883 10.7784 11.7585 10.8144C11.134 11.5481 10.2251 12.0011 9.27768 12.1401C7.94579 12.2217 6.88158 11.9313 5.86703 11.0453C5.61561 10.8224 5.42441 10.5643 5.23542 10.2874C5.20221 10.2403 5.20221 10.2403 5.16832 10.1922C4.89307 9.77272 4.58748 9.11522 4.64593 8.60314C4.7092 8.36678 4.83375 8.2284 5.0341 8.09407C5.28864 7.96401 5.58468 7.99184 5.81966 8.15049Z" fill="#5B5B5B"/>
</svg>
